<mxfile host="app.diagrams.net" modified="2023-02-07T03:16:40.304Z" agent="5.0 (Windows NT 10.0; Win64; x64) AppleWebKit/537.36 (KHTML, like Gecko) Chrome/109.0.0.0 Safari/537.36" etag="x_rtiYLaZ40a_Mik8mTR" version="20.8.17" type="github">
  <diagram name="Page-1" id="c7558073-3199-34d8-9f00-42111426c3f3">
    <mxGraphModel dx="2260" dy="802" grid="1" gridSize="10" guides="1" tooltips="1" connect="1" arrows="1" fold="1" page="1" pageScale="1" pageWidth="826" pageHeight="1169" background="none" math="0" shadow="0">
      <root>
        <mxCell id="0" />
        <mxCell id="1" parent="0" />
        <mxCell id="kln2nAlyLsbZA-acA6ZX-121" value="" style="edgeStyle=orthogonalEdgeStyle;rounded=0;orthogonalLoop=1;jettySize=auto;html=1;" edge="1" parent="1" source="5" target="kln2nAlyLsbZA-acA6ZX-120">
          <mxGeometry relative="1" as="geometry" />
        </mxCell>
        <mxCell id="5" value="會員簡易系統" style="shape=process;whiteSpace=wrap;align=center;verticalAlign=middle;size=0.0475;fontStyle=1;strokeWidth=3;fillColor=#fff2cc;strokeColor=#d6b656;" parent="1" vertex="1">
          <mxGeometry x="158" y="10" width="510" height="50" as="geometry" />
        </mxCell>
        <mxCell id="kln2nAlyLsbZA-acA6ZX-125" value="" style="edgeStyle=orthogonalEdgeStyle;rounded=0;orthogonalLoop=1;jettySize=auto;html=1;" edge="1" parent="1" source="kln2nAlyLsbZA-acA6ZX-120" target="kln2nAlyLsbZA-acA6ZX-124">
          <mxGeometry relative="1" as="geometry" />
        </mxCell>
        <mxCell id="kln2nAlyLsbZA-acA6ZX-129" value="" style="edgeStyle=orthogonalEdgeStyle;rounded=0;orthogonalLoop=1;jettySize=auto;html=1;" edge="1" parent="1" source="kln2nAlyLsbZA-acA6ZX-120" target="kln2nAlyLsbZA-acA6ZX-128">
          <mxGeometry relative="1" as="geometry" />
        </mxCell>
        <mxCell id="kln2nAlyLsbZA-acA6ZX-120" value="登入頁面&lt;br&gt;login.php" style="whiteSpace=wrap;html=1;fillColor=#e1d5e7;fontStyle=1;strokeWidth=3;strokeColor=#9673a6;" vertex="1" parent="1">
          <mxGeometry x="353" y="135" width="120" height="60" as="geometry" />
        </mxCell>
        <mxCell id="kln2nAlyLsbZA-acA6ZX-127" value="" style="edgeStyle=orthogonalEdgeStyle;rounded=0;orthogonalLoop=1;jettySize=auto;html=1;" edge="1" parent="1" source="kln2nAlyLsbZA-acA6ZX-124" target="kln2nAlyLsbZA-acA6ZX-126">
          <mxGeometry relative="1" as="geometry" />
        </mxCell>
        <mxCell id="kln2nAlyLsbZA-acA6ZX-124" value="註冊頁面&lt;br&gt;register.php" style="whiteSpace=wrap;html=1;fillColor=#e1d5e7;fontStyle=1;strokeWidth=3;strokeColor=#9673a6;" vertex="1" parent="1">
          <mxGeometry x="553" y="135" width="120" height="60" as="geometry" />
        </mxCell>
        <mxCell id="kln2nAlyLsbZA-acA6ZX-132" value="" style="edgeStyle=orthogonalEdgeStyle;rounded=0;orthogonalLoop=1;jettySize=auto;html=1;" edge="1" parent="1" source="kln2nAlyLsbZA-acA6ZX-126" target="kln2nAlyLsbZA-acA6ZX-131">
          <mxGeometry relative="1" as="geometry" />
        </mxCell>
        <mxCell id="kln2nAlyLsbZA-acA6ZX-126" value="註冊驗證&lt;br&gt;auth_register.php" style="rhombus;whiteSpace=wrap;html=1;fillColor=#f8cecc;fontStyle=1;strokeWidth=3;strokeColor=#b85450;" vertex="1" parent="1">
          <mxGeometry x="750" y="105" width="137" height="120" as="geometry" />
        </mxCell>
        <mxCell id="kln2nAlyLsbZA-acA6ZX-136" value="" style="edgeStyle=orthogonalEdgeStyle;rounded=0;orthogonalLoop=1;jettySize=auto;html=1;" edge="1" parent="1" source="kln2nAlyLsbZA-acA6ZX-128" target="kln2nAlyLsbZA-acA6ZX-135">
          <mxGeometry relative="1" as="geometry" />
        </mxCell>
        <mxCell id="kln2nAlyLsbZA-acA6ZX-141" value="" style="edgeStyle=orthogonalEdgeStyle;rounded=0;orthogonalLoop=1;jettySize=auto;html=1;" edge="1" parent="1" source="kln2nAlyLsbZA-acA6ZX-128" target="kln2nAlyLsbZA-acA6ZX-140">
          <mxGeometry relative="1" as="geometry" />
        </mxCell>
        <mxCell id="kln2nAlyLsbZA-acA6ZX-128" value="登入驗證&lt;br&gt;auth_login.php" style="rhombus;whiteSpace=wrap;html=1;fillColor=#f8cecc;fontStyle=1;strokeWidth=3;strokeColor=#b85450;" vertex="1" parent="1">
          <mxGeometry x="350" y="260" width="127" height="115" as="geometry" />
        </mxCell>
        <mxCell id="kln2nAlyLsbZA-acA6ZX-131" value="註冊成功&lt;br&gt;返回登入頁面" style="ellipse;whiteSpace=wrap;html=1;fillColor=#d5e8d4;strokeColor=#82b366;fontStyle=1;strokeWidth=3;" vertex="1" parent="1">
          <mxGeometry x="778.5" y="325" width="80" height="80" as="geometry" />
        </mxCell>
        <mxCell id="kln2nAlyLsbZA-acA6ZX-167" value="" style="edgeStyle=orthogonalEdgeStyle;rounded=0;orthogonalLoop=1;jettySize=auto;html=1;" edge="1" parent="1" source="kln2nAlyLsbZA-acA6ZX-135" target="kln2nAlyLsbZA-acA6ZX-166">
          <mxGeometry relative="1" as="geometry" />
        </mxCell>
        <mxCell id="kln2nAlyLsbZA-acA6ZX-169" value="" style="edgeStyle=orthogonalEdgeStyle;rounded=0;orthogonalLoop=1;jettySize=auto;html=1;" edge="1" parent="1" source="kln2nAlyLsbZA-acA6ZX-135" target="kln2nAlyLsbZA-acA6ZX-168">
          <mxGeometry relative="1" as="geometry" />
        </mxCell>
        <mxCell id="kln2nAlyLsbZA-acA6ZX-135" value="成功跳轉至&lt;br&gt;會員系統首頁&lt;br&gt;main_home.php" style="whiteSpace=wrap;html=1;fillColor=#dae8fc;strokeColor=#6c8ebf;fontStyle=1;strokeWidth=3;" vertex="1" parent="1">
          <mxGeometry x="353.5" y="482.5" width="120" height="60" as="geometry" />
        </mxCell>
        <mxCell id="kln2nAlyLsbZA-acA6ZX-150" value="" style="edgeStyle=orthogonalEdgeStyle;rounded=0;orthogonalLoop=1;jettySize=auto;html=1;" edge="1" parent="1" source="kln2nAlyLsbZA-acA6ZX-140" target="kln2nAlyLsbZA-acA6ZX-149">
          <mxGeometry relative="1" as="geometry" />
        </mxCell>
        <mxCell id="kln2nAlyLsbZA-acA6ZX-140" value="忘記密碼&lt;br&gt;forget.php" style="whiteSpace=wrap;html=1;fillColor=#e1d5e7;strokeColor=#9673a6;fontStyle=1;strokeWidth=3;" vertex="1" parent="1">
          <mxGeometry x="146.5" y="287.5" width="120" height="60" as="geometry" />
        </mxCell>
        <mxCell id="kln2nAlyLsbZA-acA6ZX-155" value="" style="edgeStyle=orthogonalEdgeStyle;rounded=0;orthogonalLoop=1;jettySize=auto;html=1;" edge="1" parent="1" source="kln2nAlyLsbZA-acA6ZX-149" target="kln2nAlyLsbZA-acA6ZX-154">
          <mxGeometry relative="1" as="geometry" />
        </mxCell>
        <mxCell id="kln2nAlyLsbZA-acA6ZX-149" value="輸入帳號及信箱" style="ellipse;shape=cloud;whiteSpace=wrap;html=1;fillColor=#f5f5f5;strokeColor=#666666;fontStyle=1;strokeWidth=3;fontColor=#333333;" vertex="1" parent="1">
          <mxGeometry x="-30" y="277.5" width="120" height="80" as="geometry" />
        </mxCell>
        <mxCell id="kln2nAlyLsbZA-acA6ZX-158" value="" style="edgeStyle=orthogonalEdgeStyle;rounded=0;orthogonalLoop=1;jettySize=auto;html=1;" edge="1" parent="1" source="kln2nAlyLsbZA-acA6ZX-154" target="kln2nAlyLsbZA-acA6ZX-157">
          <mxGeometry relative="1" as="geometry" />
        </mxCell>
        <mxCell id="kln2nAlyLsbZA-acA6ZX-154" value="信箱&lt;br&gt;收接驗證碼" style="ellipse;shape=cloud;whiteSpace=wrap;html=1;fillColor=#f5f5f5;strokeColor=#666666;fontColor=#333333;fontStyle=1;strokeWidth=3;" vertex="1" parent="1">
          <mxGeometry x="-30" y="437.5" width="120" height="80" as="geometry" />
        </mxCell>
        <mxCell id="kln2nAlyLsbZA-acA6ZX-172" value="" style="edgeStyle=orthogonalEdgeStyle;rounded=0;orthogonalLoop=1;jettySize=auto;html=1;" edge="1" parent="1" source="kln2nAlyLsbZA-acA6ZX-157" target="kln2nAlyLsbZA-acA6ZX-171">
          <mxGeometry relative="1" as="geometry" />
        </mxCell>
        <mxCell id="kln2nAlyLsbZA-acA6ZX-157" value="驗證碼發送&lt;br&gt;forget_auth.php" style="rhombus;whiteSpace=wrap;html=1;fillColor=#f8cecc;strokeColor=#b85450;fontStyle=1;strokeWidth=3;" vertex="1" parent="1">
          <mxGeometry x="146.5" y="426.88" width="129.5" height="101.25" as="geometry" />
        </mxCell>
        <mxCell id="kln2nAlyLsbZA-acA6ZX-164" value="" style="edgeStyle=orthogonalEdgeStyle;rounded=0;orthogonalLoop=1;jettySize=auto;html=1;" edge="1" parent="1" source="kln2nAlyLsbZA-acA6ZX-159" target="kln2nAlyLsbZA-acA6ZX-163">
          <mxGeometry relative="1" as="geometry" />
        </mxCell>
        <mxCell id="kln2nAlyLsbZA-acA6ZX-159" value="成功倒轉至&lt;br&gt;重置密碼頁面&lt;br&gt;re_password.php" style="whiteSpace=wrap;html=1;fillColor=#e1d5e7;strokeColor=#9673a6;fontStyle=1;strokeWidth=3;" vertex="1" parent="1">
          <mxGeometry x="151.25" y="699.995" width="120" height="60" as="geometry" />
        </mxCell>
        <mxCell id="kln2nAlyLsbZA-acA6ZX-161" value="重置完成倒轉至&lt;br&gt;登入頁面&lt;br&gt;login.php" style="whiteSpace=wrap;html=1;fillColor=#d5e8d4;strokeColor=#82b366;fontStyle=1;strokeWidth=3;" vertex="1" parent="1">
          <mxGeometry x="151.25" y="971.24" width="120" height="60" as="geometry" />
        </mxCell>
        <mxCell id="kln2nAlyLsbZA-acA6ZX-165" value="" style="edgeStyle=orthogonalEdgeStyle;rounded=0;orthogonalLoop=1;jettySize=auto;html=1;" edge="1" parent="1" source="kln2nAlyLsbZA-acA6ZX-163" target="kln2nAlyLsbZA-acA6ZX-161">
          <mxGeometry relative="1" as="geometry" />
        </mxCell>
        <mxCell id="kln2nAlyLsbZA-acA6ZX-163" value="驗證密碼&lt;br&gt;re_password_auth.php" style="rhombus;whiteSpace=wrap;html=1;fillColor=#f8cecc;strokeColor=#b85450;fontStyle=1;strokeWidth=3;" vertex="1" parent="1">
          <mxGeometry x="171.25" y="829.995" width="80" height="80" as="geometry" />
        </mxCell>
        <mxCell id="kln2nAlyLsbZA-acA6ZX-166" value="main_home.php =&amp;gt; 首頁&lt;br&gt;main_personal.php =&amp;gt; 個人資料" style="rounded=1;whiteSpace=wrap;html=1;fillColor=#ffe6cc;strokeColor=#d79b00;fontStyle=1;strokeWidth=3;" vertex="1" parent="1">
          <mxGeometry x="311.13" y="622.5" width="204.75" height="60" as="geometry" />
        </mxCell>
        <mxCell id="kln2nAlyLsbZA-acA6ZX-168" value="登出&lt;br&gt;logout.php" style="whiteSpace=wrap;html=1;fillColor=#fad7ac;strokeColor=#b46504;fontStyle=1;strokeWidth=3;" vertex="1" parent="1">
          <mxGeometry x="350" y="758.76" width="120" height="60" as="geometry" />
        </mxCell>
        <mxCell id="kln2nAlyLsbZA-acA6ZX-173" value="" style="edgeStyle=orthogonalEdgeStyle;rounded=0;orthogonalLoop=1;jettySize=auto;html=1;" edge="1" parent="1" source="kln2nAlyLsbZA-acA6ZX-171" target="kln2nAlyLsbZA-acA6ZX-159">
          <mxGeometry relative="1" as="geometry" />
        </mxCell>
        <mxCell id="kln2nAlyLsbZA-acA6ZX-171" value="驗證&lt;br&gt;code_auth.php" style="rhombus;whiteSpace=wrap;html=1;fillColor=#f8cecc;strokeColor=#b85450;fontStyle=1;strokeWidth=3;" vertex="1" parent="1">
          <mxGeometry x="151.25" y="560" width="120" height="90" as="geometry" />
        </mxCell>
      </root>
    </mxGraphModel>
  </diagram>
</mxfile>
